<svg width="333" height="50" viewBox="0 0 333 50" fill="none" xmlns="http://www.w3.org/2000/svg">
<g clip-path="url(#clip0_29_156)">
<path d="M104.777 11.6128C105.937 18.863 113.088 23.3831 120.15 21.1651C119.496 28.0895 111.477 32.0329 105.493 28.7345C99.1693 25.2478 98.4934 15.5519 104.776 11.6128H104.777Z" fill="#E3C9A4"/>
<path d="M117.627 29.14C123.505 24.5858 123.397 15.3422 117.677 10.7816C124.165 7.60776 131.762 13.1848 131.603 20.1295C131.446 27.0178 124.036 32.0988 117.627 29.14Z" fill="#FFA500"/>
<path d="M110.124 17.7507C104.285 13.221 105.803 3.73577 112.402 0.813142C118.464 -1.87107 125.883 2.39685 126.311 9.10846C119.284 6.26885 111.695 10.4037 110.124 17.7518V17.7507Z" fill="#A76D99"/>
</g>
<path d="M149.735 23.692C148.359 23.692 147.119 23.412 146.015 22.852C144.927 22.276 144.071 21.484 143.447 20.476C142.839 19.468 142.535 18.324 142.535 17.044C142.535 15.764 142.839 14.62 143.447 13.612C144.071 12.604 144.927 11.82 146.015 11.26C147.119 10.684 148.359 10.396 149.735 10.396C151.095 10.396 152.279 10.684 153.287 11.26C154.311 11.82 155.055 12.628 155.519 13.684L152.615 15.244C151.943 14.06 150.975 13.468 149.711 13.468C148.735 13.468 147.927 13.788 147.287 14.428C146.647 15.068 146.327 15.94 146.327 17.044C146.327 18.148 146.647 19.02 147.287 19.66C147.927 20.3 148.735 20.62 149.711 20.62C150.991 20.62 151.959 20.028 152.615 18.844L155.519 20.428C155.055 21.452 154.311 22.252 153.287 22.828C152.279 23.404 151.095 23.692 149.735 23.692ZM163.654 23.692C162.294 23.692 161.07 23.412 159.982 22.852C158.91 22.276 158.07 21.484 157.462 20.476C156.854 19.468 156.55 18.324 156.55 17.044C156.55 15.764 156.854 14.62 157.462 13.612C158.07 12.604 158.91 11.82 159.982 11.26C161.07 10.684 162.294 10.396 163.654 10.396C165.014 10.396 166.23 10.684 167.302 11.26C168.374 11.82 169.214 12.604 169.822 13.612C170.43 14.62 170.734 15.764 170.734 17.044C170.734 18.324 170.43 19.468 169.822 20.476C169.214 21.484 168.374 22.276 167.302 22.852C166.23 23.412 165.014 23.692 163.654 23.692ZM163.654 20.62C164.614 20.62 165.398 20.3 166.006 19.66C166.63 19.004 166.942 18.132 166.942 17.044C166.942 15.956 166.63 15.092 166.006 14.452C165.398 13.796 164.614 13.468 163.654 13.468C162.694 13.468 161.902 13.796 161.278 14.452C160.654 15.092 160.342 15.956 160.342 17.044C160.342 18.132 160.654 19.004 161.278 19.66C161.902 20.3 162.694 20.62 163.654 20.62ZM179.741 20.692C180.413 20.692 181.005 20.596 181.517 20.404C182.045 20.196 182.533 19.876 182.981 19.444L184.973 21.604C183.757 22.996 181.981 23.692 179.645 23.692C178.189 23.692 176.901 23.412 175.781 22.852C174.661 22.276 173.797 21.484 173.189 20.476C172.581 19.468 172.277 18.324 172.277 17.044C172.277 15.78 172.573 14.644 173.165 13.636C173.773 12.612 174.597 11.82 175.637 11.26C176.693 10.684 177.877 10.396 179.189 10.396C180.421 10.396 181.541 10.66 182.549 11.188C183.557 11.7 184.357 12.452 184.949 13.444C185.557 14.42 185.861 15.58 185.861 16.924L176.309 18.772C176.581 19.412 177.005 19.892 177.581 20.212C178.173 20.532 178.893 20.692 179.741 20.692ZM179.189 13.228C178.245 13.228 177.477 13.532 176.885 14.14C176.293 14.748 175.981 15.588 175.949 16.66L182.237 15.436C182.061 14.764 181.701 14.228 181.157 13.828C180.613 13.428 179.957 13.228 179.189 13.228ZM192.722 23.692C191.65 23.692 190.602 23.564 189.578 23.308C188.554 23.036 187.738 22.7 187.13 22.3L188.378 19.612C188.954 19.98 189.65 20.284 190.466 20.524C191.282 20.748 192.082 20.86 192.866 20.86C194.45 20.86 195.242 20.468 195.242 19.684C195.242 19.316 195.026 19.052 194.594 18.892C194.162 18.732 193.498 18.596 192.602 18.484C191.546 18.324 190.674 18.14 189.986 17.932C189.298 17.724 188.698 17.356 188.186 16.828C187.69 16.3 187.442 15.548 187.442 14.572C187.442 13.756 187.674 13.036 188.138 12.412C188.618 11.772 189.306 11.276 190.202 10.924C191.114 10.572 192.186 10.396 193.418 10.396C194.33 10.396 195.234 10.5 196.13 10.708C197.042 10.9 197.794 11.172 198.386 11.524L197.138 14.188C196.002 13.548 194.762 13.228 193.418 13.228C192.618 13.228 192.018 13.34 191.618 13.564C191.218 13.788 191.018 14.076 191.018 14.428C191.018 14.828 191.234 15.108 191.666 15.268C192.098 15.428 192.786 15.58 193.73 15.724C194.786 15.9 195.65 16.092 196.322 16.3C196.994 16.492 197.578 16.852 198.074 17.38C198.57 17.908 198.818 18.644 198.818 19.588C198.818 20.388 198.578 21.1 198.098 21.724C197.618 22.348 196.914 22.836 195.986 23.188C195.074 23.524 193.986 23.692 192.722 23.692ZM214.136 10.588V21.34C214.136 23.708 213.536 25.468 212.336 26.62C211.136 27.772 209.392 28.348 207.104 28.348C205.888 28.348 204.736 28.196 203.648 27.892C202.576 27.588 201.672 27.148 200.936 26.572L202.424 23.884C202.968 24.332 203.632 24.684 204.416 24.94C205.2 25.196 205.992 25.324 206.792 25.324C208.04 25.324 208.952 25.036 209.528 24.46C210.104 23.884 210.392 23.004 210.392 21.82V21.388C209.912 21.868 209.344 22.236 208.688 22.492C208.032 22.748 207.328 22.876 206.576 22.876C204.88 22.876 203.536 22.396 202.544 21.436C201.552 20.46 201.056 19.004 201.056 17.068V10.588H204.8V16.516C204.8 18.612 205.672 19.66 207.416 19.66C208.312 19.66 209.032 19.372 209.576 18.796C210.12 18.204 210.392 17.332 210.392 16.18V10.588H214.136ZM230.708 10.588V23.5H227.132V22.012C226.204 23.132 224.86 23.692 223.1 23.692C221.884 23.692 220.78 23.42 219.788 22.876C218.812 22.332 218.044 21.556 217.484 20.548C216.924 19.54 216.644 18.372 216.644 17.044C216.644 15.716 216.924 14.548 217.484 13.54C218.044 12.532 218.812 11.756 219.788 11.212C220.78 10.668 221.884 10.396 223.1 10.396C224.748 10.396 226.036 10.916 226.964 11.956V10.588H230.708ZM223.748 20.62C224.692 20.62 225.476 20.3 226.1 19.66C226.724 19.004 227.036 18.132 227.036 17.044C227.036 15.956 226.724 15.092 226.1 14.452C225.476 13.796 224.692 13.468 223.748 13.468C222.788 13.468 221.996 13.796 221.372 14.452C220.748 15.092 220.436 15.956 220.436 17.044C220.436 18.132 220.748 19.004 221.372 19.66C221.996 20.3 222.788 20.62 223.748 20.62Z" fill="#121212"/>
<defs>
<clipPath id="clip0_29_156">
<rect width="31.2133" height="30" fill="white" transform="translate(100.393)"/>
</clipPath>
</defs>
</svg>
