<svg width="133" height="30" viewBox="0 0 133 30" fill="none" xmlns="http://www.w3.org/2000/svg">
<g clip-path="url(#clip0_348_788)">
<g clip-path="url(#clip1_348_788)">
<path d="M4.38388 11.6128C5.54399 18.8629 12.6952 23.3831 19.7569 21.1651C19.1024 28.0895 11.0838 32.0328 5.10017 28.7345C-1.22402 25.2478 -1.89986 15.5518 4.38282 11.6128H4.38388Z" fill="#E3C9A4"/>
<path d="M17.2334 29.14C23.1116 24.5857 23.0041 15.3421 17.2834 10.7815C23.7715 7.60771 31.3686 13.1847 31.2101 20.1294C31.0525 27.0177 23.6427 32.0988 17.2334 29.14Z" fill="#FFA500"/>
<path d="M9.73103 17.7507C3.89217 13.2209 5.40989 3.73571 12.0087 0.813088C18.071 -1.87113 25.4894 2.3968 25.9172 9.1084C18.8906 6.2688 11.302 10.4037 9.73103 17.7517V17.7507Z" fill="#A76D99"/>
</g>
<path d="M49.3415 23.692C47.9655 23.692 46.7255 23.412 45.6215 22.852C44.5335 22.276 43.6775 21.484 43.0535 20.476C42.4455 19.468 42.1415 18.324 42.1415 17.044C42.1415 15.764 42.4455 14.62 43.0535 13.612C43.6775 12.604 44.5335 11.82 45.6215 11.26C46.7255 10.684 47.9655 10.396 49.3415 10.396C50.7015 10.396 51.8855 10.684 52.8935 11.26C53.9175 11.82 54.6615 12.628 55.1255 13.684L52.2215 15.244C51.5495 14.06 50.5815 13.468 49.3175 13.468C48.3415 13.468 47.5335 13.788 46.8935 14.428C46.2535 15.068 45.9335 15.94 45.9335 17.044C45.9335 18.148 46.2535 19.02 46.8935 19.66C47.5335 20.3 48.3415 20.62 49.3175 20.62C50.5975 20.62 51.5655 20.028 52.2215 18.844L55.1255 20.428C54.6615 21.452 53.9175 22.252 52.8935 22.828C51.8855 23.404 50.7015 23.692 49.3415 23.692ZM63.2612 23.692C61.9012 23.692 60.6772 23.412 59.5892 22.852C58.5172 22.276 57.6772 21.484 57.0692 20.476C56.4612 19.468 56.1572 18.324 56.1572 17.044C56.1572 15.764 56.4612 14.62 57.0692 13.612C57.6772 12.604 58.5172 11.82 59.5892 11.26C60.6772 10.684 61.9012 10.396 63.2612 10.396C64.6212 10.396 65.8372 10.684 66.9092 11.26C67.9812 11.82 68.8212 12.604 69.4292 13.612C70.0372 14.62 70.3412 15.764 70.3412 17.044C70.3412 18.324 70.0372 19.468 69.4292 20.476C68.8212 21.484 67.9812 22.276 66.9092 22.852C65.8372 23.412 64.6212 23.692 63.2612 23.692ZM63.2612 20.62C64.2212 20.62 65.0052 20.3 65.6132 19.66C66.2372 19.004 66.5492 18.132 66.5492 17.044C66.5492 15.956 66.2372 15.092 65.6132 14.452C65.0052 13.796 64.2212 13.468 63.2612 13.468C62.3012 13.468 61.5092 13.796 60.8852 14.452C60.2612 15.092 59.9492 15.956 59.9492 17.044C59.9492 18.132 60.2612 19.004 60.8852 19.66C61.5092 20.3 62.3012 20.62 63.2612 20.62ZM79.3477 20.692C80.0197 20.692 80.6117 20.596 81.1237 20.404C81.6517 20.196 82.1397 19.876 82.5877 19.444L84.5797 21.604C83.3637 22.996 81.5877 23.692 79.2517 23.692C77.7957 23.692 76.5077 23.412 75.3877 22.852C74.2677 22.276 73.4037 21.484 72.7957 20.476C72.1877 19.468 71.8837 18.324 71.8837 17.044C71.8837 15.78 72.1797 14.644 72.7717 13.636C73.3797 12.612 74.2037 11.82 75.2437 11.26C76.2997 10.684 77.4837 10.396 78.7957 10.396C80.0277 10.396 81.1477 10.66 82.1557 11.188C83.1637 11.7 83.9637 12.452 84.5557 13.444C85.1637 14.42 85.4677 15.58 85.4677 16.924L75.9157 18.772C76.1877 19.412 76.6117 19.892 77.1877 20.212C77.7797 20.532 78.4997 20.692 79.3477 20.692ZM78.7957 13.228C77.8517 13.228 77.0837 13.532 76.4917 14.14C75.8997 14.748 75.5877 15.588 75.5557 16.66L81.8437 15.436C81.6677 14.764 81.3077 14.228 80.7637 13.828C80.2197 13.428 79.5637 13.228 78.7957 13.228ZM92.3283 23.692C91.2563 23.692 90.2083 23.564 89.1843 23.308C88.1603 23.036 87.3443 22.7 86.7363 22.3L87.9843 19.612C88.5603 19.98 89.2563 20.284 90.0723 20.524C90.8883 20.748 91.6883 20.86 92.4723 20.86C94.0563 20.86 94.8483 20.468 94.8483 19.684C94.8483 19.316 94.6323 19.052 94.2003 18.892C93.7683 18.732 93.1043 18.596 92.2083 18.484C91.1523 18.324 90.2803 18.14 89.5923 17.932C88.9043 17.724 88.3043 17.356 87.7923 16.828C87.2963 16.3 87.0483 15.548 87.0483 14.572C87.0483 13.756 87.2803 13.036 87.7443 12.412C88.2243 11.772 88.9123 11.276 89.8083 10.924C90.7203 10.572 91.7923 10.396 93.0243 10.396C93.9363 10.396 94.8403 10.5 95.7363 10.708C96.6483 10.9 97.4003 11.172 97.9923 11.524L96.7443 14.188C95.6083 13.548 94.3683 13.228 93.0243 13.228C92.2243 13.228 91.6243 13.34 91.2243 13.564C90.8243 13.788 90.6243 14.076 90.6243 14.428C90.6243 14.828 90.8403 15.108 91.2723 15.268C91.7043 15.428 92.3923 15.58 93.3363 15.724C94.3923 15.9 95.2563 16.092 95.9283 16.3C96.6003 16.492 97.1843 16.852 97.6803 17.38C98.1763 17.908 98.4243 18.644 98.4243 19.588C98.4243 20.388 98.1843 21.1 97.7043 21.724C97.2243 22.348 96.5203 22.836 95.5923 23.188C94.6803 23.524 93.5923 23.692 92.3283 23.692ZM113.742 10.588V21.34C113.742 23.708 113.142 25.468 111.942 26.62C110.742 27.772 108.998 28.348 106.71 28.348C105.494 28.348 104.342 28.196 103.254 27.892C102.182 27.588 101.278 27.148 100.542 26.572L102.03 23.884C102.574 24.332 103.238 24.684 104.022 24.94C104.806 25.196 105.598 25.324 106.398 25.324C107.646 25.324 108.558 25.036 109.134 24.46C109.71 23.884 109.998 23.004 109.998 21.82V21.388C109.518 21.868 108.95 22.236 108.294 22.492C107.638 22.748 106.934 22.876 106.182 22.876C104.486 22.876 103.142 22.396 102.15 21.436C101.158 20.46 100.662 19.004 100.662 17.068V10.588H104.406V16.516C104.406 18.612 105.278 19.66 107.022 19.66C107.918 19.66 108.638 19.372 109.182 18.796C109.726 18.204 109.998 17.332 109.998 16.18V10.588H113.742ZM130.315 10.588V23.5H126.739V22.012C125.811 23.132 124.467 23.692 122.707 23.692C121.491 23.692 120.387 23.42 119.395 22.876C118.419 22.332 117.651 21.556 117.091 20.548C116.531 19.54 116.251 18.372 116.251 17.044C116.251 15.716 116.531 14.548 117.091 13.54C117.651 12.532 118.419 11.756 119.395 11.212C120.387 10.668 121.491 10.396 122.707 10.396C124.355 10.396 125.643 10.916 126.571 11.956V10.588H130.315ZM123.355 20.62C124.299 20.62 125.083 20.3 125.707 19.66C126.331 19.004 126.643 18.132 126.643 17.044C126.643 15.956 126.331 15.092 125.707 14.452C125.083 13.796 124.299 13.468 123.355 13.468C122.395 13.468 121.603 13.796 120.979 14.452C120.355 15.092 120.043 15.956 120.043 17.044C120.043 18.132 120.355 19.004 120.979 19.66C121.603 20.3 122.395 20.62 123.355 20.62Z" fill="#121212"/>
</g>
<defs>
<clipPath id="clip0_348_788">
<rect width="132.213" height="30" fill="white"/>
</clipPath>
<clipPath id="clip1_348_788">
<rect width="31.2133" height="30" fill="white"/>
</clipPath>
</defs>
</svg>
