<svg width="313" height="58" viewBox="0 0 313 58" fill="none" xmlns="http://www.w3.org/2000/svg">
<rect x="0.5" y="0.5" width="312" height="57" rx="14.5" fill="#F7F7F7"/>
<rect x="0.5" y="0.5" width="312" height="57" rx="14.5" stroke="#EBEBEB"/>
<path d="M83.92 29.1875C83.92 28.6025 83.8675 28.04 83.77 27.5H76V30.695H80.44C80.245 31.7225 79.66 32.5925 78.7825 33.1775V35.255H81.46C83.02 33.815 83.92 31.7 83.92 29.1875Z" fill="#4285F4"/>
<path d="M76 37.25C78.2275 37.25 80.095 36.515 81.46 35.255L78.7825 33.1775C78.0475 33.6725 77.11 33.9725 76 33.9725C73.855 33.9725 72.0325 32.525 71.38 30.575H68.635V32.705C69.9925 35.3975 72.775 37.25 76 37.25Z" fill="#34A853"/>
<path d="M71.38 30.5675C71.215 30.0725 71.1175 29.5475 71.1175 29C71.1175 28.4525 71.215 27.9275 71.38 27.4325V25.3025H68.635C68.0725 26.4125 67.75 27.665 67.75 29C67.75 30.335 68.0725 31.5875 68.635 32.6975L70.7725 31.0325L71.38 30.5675Z" fill="#FBBC05"/>
<path d="M76 24.035C77.215 24.035 78.295 24.455 79.1575 25.265L81.52 22.9025C80.0875 21.5675 78.2275 20.75 76 20.75C72.775 20.75 69.9925 22.6025 68.635 25.3025L71.38 27.4325C72.0325 25.4825 73.855 24.035 76 24.035Z" fill="#EA4335"/>
<path d="M102.955 35H100.705L104.801 23.3636H107.403L111.506 35H109.256L106.148 25.75H106.057L102.955 35ZM103.028 30.4375H109.165V32.1307H103.028V30.4375ZM116.489 35.1705C115.617 35.1705 114.869 34.9792 114.244 34.5966C113.623 34.214 113.144 33.6856 112.807 33.0114C112.473 32.3333 112.307 31.553 112.307 30.6705C112.307 29.7841 112.477 29.0019 112.818 28.3239C113.159 27.642 113.64 27.1117 114.261 26.733C114.886 26.3504 115.625 26.1591 116.477 26.1591C117.186 26.1591 117.813 26.2898 118.358 26.5511C118.907 26.8087 119.345 27.1742 119.67 27.6477C119.996 28.1174 120.182 28.6667 120.227 29.2955H118.261C118.182 28.875 117.992 28.5246 117.693 28.2443C117.398 27.9602 117.002 27.8182 116.506 27.8182C116.085 27.8182 115.716 27.9318 115.398 28.1591C115.08 28.3826 114.831 28.7045 114.653 29.125C114.479 29.5455 114.392 30.0492 114.392 30.6364C114.392 31.2311 114.479 31.7424 114.653 32.1705C114.828 32.5947 115.072 32.9223 115.386 33.1534C115.705 33.3807 116.078 33.4943 116.506 33.4943C116.809 33.4943 117.08 33.4375 117.318 33.3239C117.561 33.2064 117.763 33.0379 117.926 32.8182C118.089 32.5985 118.201 32.3314 118.261 32.017H120.227C120.178 32.6345 119.996 33.1818 119.682 33.6591C119.367 34.1326 118.939 34.5038 118.398 34.7727C117.856 35.0379 117.22 35.1705 116.489 35.1705ZM125.723 35.1705C124.852 35.1705 124.104 34.9792 123.479 34.5966C122.857 34.214 122.378 33.6856 122.041 33.0114C121.708 32.3333 121.541 31.553 121.541 30.6705C121.541 29.7841 121.712 29.0019 122.053 28.3239C122.393 27.642 122.875 27.1117 123.496 26.733C124.121 26.3504 124.859 26.1591 125.712 26.1591C126.42 26.1591 127.047 26.2898 127.592 26.5511C128.142 26.8087 128.579 27.1742 128.905 27.6477C129.231 28.1174 129.416 28.6667 129.462 29.2955H127.496C127.416 28.875 127.227 28.5246 126.928 28.2443C126.632 27.9602 126.236 27.8182 125.74 27.8182C125.32 27.8182 124.95 27.9318 124.632 28.1591C124.314 28.3826 124.066 28.7045 123.888 29.125C123.714 29.5455 123.626 30.0492 123.626 30.6364C123.626 31.2311 123.714 31.7424 123.888 32.1705C124.062 32.5947 124.306 32.9223 124.621 33.1534C124.939 33.3807 125.312 33.4943 125.74 33.4943C126.043 33.4943 126.314 33.4375 126.553 33.3239C126.795 33.2064 126.998 33.0379 127.161 32.8182C127.323 32.5985 127.435 32.3314 127.496 32.017H129.462C129.412 32.6345 129.231 33.1818 128.916 33.6591C128.602 34.1326 128.174 34.5038 127.632 34.7727C127.09 35.0379 126.454 35.1705 125.723 35.1705ZM135.014 35.1705C134.139 35.1705 133.384 34.9886 132.747 34.625C132.115 34.2576 131.628 33.7386 131.287 33.0682C130.946 32.3939 130.776 31.6004 130.776 30.6875C130.776 29.7898 130.946 29.0019 131.287 28.3239C131.632 27.642 132.113 27.1117 132.73 26.733C133.348 26.3504 134.073 26.1591 134.906 26.1591C135.444 26.1591 135.952 26.2462 136.429 26.4205C136.91 26.5909 137.334 26.8561 137.702 27.2159C138.073 27.5758 138.365 28.0341 138.577 28.5909C138.789 29.1439 138.895 29.803 138.895 30.5682V31.1989H131.741V29.8125H136.923C136.92 29.4186 136.834 29.0682 136.668 28.7614C136.501 28.4508 136.268 28.2064 135.969 28.0284C135.673 27.8504 135.329 27.7614 134.935 27.7614C134.514 27.7614 134.145 27.8636 133.827 28.0682C133.509 28.2689 133.26 28.5341 133.082 28.8636C132.908 29.1894 132.819 29.5473 132.815 29.9375V31.1477C132.815 31.6553 132.908 32.0909 133.094 32.4545C133.279 32.8144 133.539 33.0909 133.872 33.2841C134.205 33.4735 134.596 33.5682 135.043 33.5682C135.342 33.5682 135.613 33.5265 135.855 33.4432C136.098 33.3561 136.308 33.2292 136.486 33.0625C136.664 32.8958 136.798 32.6894 136.889 32.4432L138.81 32.6591C138.688 33.1667 138.457 33.6098 138.116 33.9886C137.779 34.3636 137.348 34.6553 136.821 34.8636C136.295 35.0682 135.692 35.1705 135.014 35.1705ZM143.874 35.1534C143.188 35.1534 142.574 34.9773 142.033 34.625C141.491 34.2727 141.063 33.7614 140.749 33.0909C140.434 32.4205 140.277 31.6061 140.277 30.6477C140.277 29.678 140.436 28.8598 140.754 28.1932C141.076 27.5227 141.51 27.017 142.055 26.6761C142.601 26.3314 143.209 26.1591 143.879 26.1591C144.391 26.1591 144.811 26.2462 145.141 26.4205C145.47 26.5909 145.732 26.7973 145.925 27.0398C146.118 27.2784 146.268 27.5038 146.374 27.7159H146.459V23.3636H148.521V35H146.499V33.625H146.374C146.268 33.8371 146.114 34.0625 145.913 34.3011C145.713 34.536 145.447 34.7367 145.118 34.9034C144.788 35.0701 144.374 35.1534 143.874 35.1534ZM144.447 33.4659C144.883 33.4659 145.254 33.3485 145.561 33.1136C145.868 32.875 146.101 32.5436 146.26 32.1193C146.419 31.6951 146.499 31.2008 146.499 30.6364C146.499 30.072 146.419 29.5814 146.26 29.1648C146.105 28.7481 145.874 28.4242 145.567 28.1932C145.264 27.9621 144.891 27.8466 144.447 27.8466C143.989 27.8466 143.607 27.9659 143.3 28.2045C142.993 28.4432 142.762 28.7727 142.607 29.1932C142.451 29.6136 142.374 30.0947 142.374 30.6364C142.374 31.1818 142.451 31.6686 142.607 32.0966C142.766 32.5208 142.999 32.8561 143.305 33.1023C143.616 33.3447 143.997 33.4659 144.447 33.4659ZM150.713 35V26.2727H152.77V35H150.713ZM151.747 25.0341C151.421 25.0341 151.141 24.9261 150.906 24.7102C150.671 24.4905 150.554 24.2273 150.554 23.9205C150.554 23.6098 150.671 23.3466 150.906 23.1307C151.141 22.911 151.421 22.8011 151.747 22.8011C152.077 22.8011 152.357 22.911 152.588 23.1307C152.823 23.3466 152.94 23.6098 152.94 23.9205C152.94 24.2273 152.823 24.4905 152.588 24.7102C152.357 24.9261 152.077 25.0341 151.747 25.0341ZM162.661 35.1705C161.789 35.1705 161.041 34.9792 160.416 34.5966C159.795 34.214 159.316 33.6856 158.979 33.0114C158.645 32.3333 158.479 31.553 158.479 30.6705C158.479 29.7841 158.649 29.0019 158.99 28.3239C159.331 27.642 159.812 27.1117 160.433 26.733C161.058 26.3504 161.797 26.1591 162.649 26.1591C163.357 26.1591 163.984 26.2898 164.53 26.5511C165.079 26.8087 165.517 27.1742 165.842 27.6477C166.168 28.1174 166.354 28.6667 166.399 29.2955H164.433C164.354 28.875 164.164 28.5246 163.865 28.2443C163.57 27.9602 163.174 27.8182 162.678 27.8182C162.257 27.8182 161.888 27.9318 161.57 28.1591C161.251 28.3826 161.003 28.7045 160.825 29.125C160.651 29.5455 160.564 30.0492 160.564 30.6364C160.564 31.2311 160.651 31.7424 160.825 32.1705C161 32.5947 161.244 32.9223 161.558 33.1534C161.876 33.3807 162.25 33.4943 162.678 33.4943C162.981 33.4943 163.251 33.4375 163.49 33.3239C163.732 33.2064 163.935 33.0379 164.098 32.8182C164.261 32.5985 164.373 32.3314 164.433 32.017H166.399C166.35 32.6345 166.168 33.1818 165.854 33.6591C165.539 34.1326 165.111 34.5038 164.57 34.7727C164.028 35.0379 163.392 35.1705 162.661 35.1705ZM171.895 35.1705C171.043 35.1705 170.304 34.983 169.679 34.608C169.054 34.233 168.569 33.7083 168.224 33.0341C167.884 32.3598 167.713 31.572 167.713 30.6705C167.713 29.7689 167.884 28.9792 168.224 28.3011C168.569 27.6231 169.054 27.0966 169.679 26.7216C170.304 26.3466 171.043 26.1591 171.895 26.1591C172.747 26.1591 173.486 26.3466 174.111 26.7216C174.736 27.0966 175.219 27.6231 175.56 28.3011C175.904 28.9792 176.077 29.7689 176.077 30.6705C176.077 31.572 175.904 32.3598 175.56 33.0341C175.219 33.7083 174.736 34.233 174.111 34.608C173.486 34.983 172.747 35.1705 171.895 35.1705ZM171.906 33.5227C172.368 33.5227 172.755 33.3958 173.065 33.142C173.376 32.8845 173.607 32.5398 173.759 32.108C173.914 31.6761 173.991 31.1951 173.991 30.6648C173.991 30.1307 173.914 29.6477 173.759 29.2159C173.607 28.7803 173.376 28.4337 173.065 28.1761C172.755 27.9186 172.368 27.7898 171.906 27.7898C171.433 27.7898 171.039 27.9186 170.724 28.1761C170.414 28.4337 170.181 28.7803 170.026 29.2159C169.874 29.6477 169.798 30.1307 169.798 30.6648C169.798 31.1951 169.874 31.6761 170.026 32.108C170.181 32.5398 170.414 32.8845 170.724 33.142C171.039 33.3958 171.433 33.5227 171.906 33.5227ZM179.879 29.8864V35H177.822V26.2727H179.788V27.7557H179.891C180.091 27.267 180.411 26.8788 180.851 26.5909C181.294 26.303 181.841 26.1591 182.493 26.1591C183.095 26.1591 183.62 26.2879 184.067 26.5455C184.518 26.803 184.866 27.1761 185.112 27.6648C185.362 28.1534 185.485 28.7462 185.482 29.4432V35H183.425V29.7614C183.425 29.178 183.273 28.7216 182.97 28.392C182.671 28.0625 182.256 27.8977 181.726 27.8977C181.366 27.8977 181.046 27.9773 180.766 28.1364C180.489 28.2917 180.271 28.517 180.112 28.8125C179.957 29.108 179.879 29.4659 179.879 29.8864ZM199.428 27.0795C199.333 26.7727 199.202 26.4981 199.036 26.2557C198.873 26.0095 198.676 25.7992 198.445 25.625C198.217 25.4508 197.956 25.3201 197.661 25.233C197.365 25.142 197.043 25.0966 196.695 25.0966C196.07 25.0966 195.513 25.2538 195.024 25.5682C194.536 25.8826 194.151 26.3447 193.871 26.9545C193.594 27.5606 193.456 28.2992 193.456 29.1705C193.456 30.0492 193.594 30.7936 193.871 31.4034C194.147 32.0133 194.532 32.4773 195.024 32.7955C195.517 33.1098 196.089 33.267 196.74 33.267C197.331 33.267 197.842 33.1534 198.274 32.9261C198.71 32.6989 199.045 32.3769 199.28 31.9602C199.515 31.5398 199.632 31.0473 199.632 30.483L200.109 30.5568H196.95V28.9091H201.672V30.3068C201.672 31.303 201.46 32.1648 201.036 32.892C200.611 33.6193 200.028 34.1799 199.286 34.5739C198.543 34.964 197.691 35.1591 196.729 35.1591C195.657 35.1591 194.715 34.9186 193.905 34.4375C193.098 33.9527 192.467 33.2652 192.013 32.375C191.562 31.4811 191.337 30.4205 191.337 29.1932C191.337 28.2538 191.469 27.4148 191.734 26.6761C192.003 25.9375 192.378 25.3106 192.859 24.7955C193.34 24.2765 193.905 23.8826 194.553 23.6136C195.2 23.3409 195.905 23.2045 196.666 23.2045C197.31 23.2045 197.911 23.2992 198.467 23.4886C199.024 23.6742 199.518 23.9394 199.95 24.2841C200.386 24.6288 200.744 25.0379 201.024 25.5114C201.304 25.9848 201.488 26.5076 201.575 27.0795H199.428ZM207.426 35.1705C206.574 35.1705 205.835 34.983 205.21 34.608C204.585 34.233 204.1 33.7083 203.756 33.0341C203.415 32.3598 203.244 31.572 203.244 30.6705C203.244 29.7689 203.415 28.9792 203.756 28.3011C204.1 27.6231 204.585 27.0966 205.21 26.7216C205.835 26.3466 206.574 26.1591 207.426 26.1591C208.278 26.1591 209.017 26.3466 209.642 26.7216C210.267 27.0966 210.75 27.6231 211.091 28.3011C211.436 28.9792 211.608 29.7689 211.608 30.6705C211.608 31.572 211.436 32.3598 211.091 33.0341C210.75 33.7083 210.267 34.233 209.642 34.608C209.017 34.983 208.278 35.1705 207.426 35.1705ZM207.438 33.5227C207.9 33.5227 208.286 33.3958 208.597 33.142C208.907 32.8845 209.138 32.5398 209.29 32.108C209.445 31.6761 209.523 31.1951 209.523 30.6648C209.523 30.1307 209.445 29.6477 209.29 29.2159C209.138 28.7803 208.907 28.4337 208.597 28.1761C208.286 27.9186 207.9 27.7898 207.438 27.7898C206.964 27.7898 206.57 27.9186 206.256 28.1761C205.945 28.4337 205.712 28.7803 205.557 29.2159C205.405 29.6477 205.33 30.1307 205.33 30.6648C205.33 31.1951 205.405 31.6761 205.557 32.108C205.712 32.5398 205.945 32.8845 206.256 33.142C206.57 33.3958 206.964 33.5227 207.438 33.5227ZM217.161 35.1705C216.308 35.1705 215.57 34.983 214.945 34.608C214.32 34.233 213.835 33.7083 213.49 33.0341C213.149 32.3598 212.979 31.572 212.979 30.6705C212.979 29.7689 213.149 28.9792 213.49 28.3011C213.835 27.6231 214.32 27.0966 214.945 26.7216C215.57 26.3466 216.308 26.1591 217.161 26.1591C218.013 26.1591 218.751 26.3466 219.376 26.7216C220.001 27.0966 220.484 27.6231 220.825 28.3011C221.17 28.9792 221.342 29.7689 221.342 30.6705C221.342 31.572 221.17 32.3598 220.825 33.0341C220.484 33.7083 220.001 34.233 219.376 34.608C218.751 34.983 218.013 35.1705 217.161 35.1705ZM217.172 33.5227C217.634 33.5227 218.02 33.3958 218.331 33.142C218.642 32.8845 218.873 32.5398 219.024 32.108C219.179 31.6761 219.257 31.1951 219.257 30.6648C219.257 30.1307 219.179 29.6477 219.024 29.2159C218.873 28.7803 218.642 28.4337 218.331 28.1761C218.02 27.9186 217.634 27.7898 217.172 27.7898C216.698 27.7898 216.304 27.9186 215.99 28.1761C215.679 28.4337 215.446 28.7803 215.291 29.2159C215.14 29.6477 215.064 30.1307 215.064 30.6648C215.064 31.1951 215.14 31.6761 215.291 32.108C215.446 32.5398 215.679 32.8845 215.99 33.142C216.304 33.3958 216.698 33.5227 217.172 33.5227ZM226.884 38.4545C226.145 38.4545 225.51 38.3542 224.98 38.1534C224.45 37.9564 224.024 37.6913 223.702 37.358C223.38 37.0246 223.156 36.6553 223.031 36.25L224.884 35.8011C224.967 35.9716 225.088 36.1402 225.247 36.3068C225.406 36.4773 225.62 36.6174 225.889 36.7273C226.162 36.8409 226.505 36.8977 226.918 36.8977C227.501 36.8977 227.984 36.7557 228.366 36.4716C228.749 36.1913 228.94 35.7292 228.94 35.0852V33.4318H228.838C228.732 33.6439 228.577 33.8617 228.372 34.0852C228.171 34.3087 227.904 34.4962 227.571 34.6477C227.241 34.7992 226.827 34.875 226.327 34.875C225.656 34.875 225.048 34.7178 224.503 34.4034C223.961 34.0852 223.529 33.6117 223.207 32.983C222.889 32.3504 222.73 31.5587 222.73 30.608C222.73 29.6496 222.889 28.8409 223.207 28.1818C223.529 27.5189 223.963 27.017 224.509 26.6761C225.054 26.3314 225.662 26.1591 226.332 26.1591C226.844 26.1591 227.264 26.2462 227.594 26.4205C227.927 26.5909 228.192 26.7973 228.389 27.0398C228.586 27.2784 228.736 27.5038 228.838 27.7159H228.952V26.2727H230.98V35.142C230.98 35.8883 230.802 36.5057 230.446 36.9943C230.09 37.483 229.603 37.8485 228.986 38.0909C228.368 38.3333 227.668 38.4545 226.884 38.4545ZM226.901 33.2614C227.336 33.2614 227.707 33.1553 228.014 32.9432C228.321 32.7311 228.554 32.4261 228.713 32.0284C228.872 31.6307 228.952 31.1534 228.952 30.5966C228.952 30.0473 228.872 29.5663 228.713 29.1534C228.558 28.7405 228.327 28.4205 228.02 28.1932C227.717 27.9621 227.344 27.8466 226.901 27.8466C226.442 27.8466 226.06 27.9659 225.753 28.2045C225.446 28.4432 225.215 28.7708 225.06 29.1875C224.904 29.6004 224.827 30.0701 224.827 30.5966C224.827 31.1307 224.904 31.5985 225.06 32C225.219 32.3977 225.452 32.7083 225.759 32.9318C226.069 33.1515 226.45 33.2614 226.901 33.2614ZM235.145 23.3636V35H233.088V23.3636H235.145ZM241.124 35.1705C240.249 35.1705 239.493 34.9886 238.857 34.625C238.224 34.2576 237.737 33.7386 237.396 33.0682C237.055 32.3939 236.885 31.6004 236.885 30.6875C236.885 29.7898 237.055 29.0019 237.396 28.3239C237.741 27.642 238.222 27.1117 238.839 26.733C239.457 26.3504 240.182 26.1591 241.016 26.1591C241.554 26.1591 242.061 26.2462 242.538 26.4205C243.019 26.5909 243.444 26.8561 243.811 27.2159C244.182 27.5758 244.474 28.0341 244.686 28.5909C244.898 29.1439 245.004 29.803 245.004 30.5682V31.1989H237.851V29.8125H243.033C243.029 29.4186 242.944 29.0682 242.777 28.7614C242.61 28.4508 242.377 28.2064 242.078 28.0284C241.783 27.8504 241.438 27.7614 241.044 27.7614C240.624 27.7614 240.254 27.8636 239.936 28.0682C239.618 28.2689 239.37 28.5341 239.192 28.8636C239.018 29.1894 238.929 29.5473 238.925 29.9375V31.1477C238.925 31.6553 239.018 32.0909 239.203 32.4545C239.389 32.8144 239.648 33.0909 239.982 33.2841C240.315 33.4735 240.705 33.5682 241.152 33.5682C241.451 33.5682 241.722 33.5265 241.964 33.4432C242.207 33.3561 242.417 33.2292 242.595 33.0625C242.773 32.8958 242.908 32.6894 242.999 32.4432L244.919 32.6591C244.798 33.1667 244.567 33.6098 244.226 33.9886C243.889 34.3636 243.457 34.6553 242.93 34.8636C242.404 35.0682 241.802 35.1705 241.124 35.1705Z" fill="#121212"/>
</svg>
