<svg width="313" height="58" viewBox="0 0 313 58" fill="none" xmlns="http://www.w3.org/2000/svg">
<rect x="0.5" y="0.5" width="312" height="57" rx="14.5" fill="#F7F7F7"/>
<rect x="0.5" y="0.5" width="312" height="57" rx="14.5" stroke="#EBEBEB"/>
<path d="M87.6872 26.1368C87.5828 26.2178 85.7394 27.2565 85.7394 29.5662C85.7394 32.2376 88.0851 33.1827 88.1553 33.2061C88.1445 33.2637 87.7826 34.5005 86.9185 35.7606C86.1481 36.8695 85.3434 37.9766 84.1193 37.9766C82.8951 37.9766 82.5801 37.2655 81.167 37.2655C79.7898 37.2655 79.3002 38 78.1805 38C77.0608 38 76.2795 36.9739 75.3812 35.7138C74.3407 34.234 73.5 31.9352 73.5 29.7534C73.5 26.2538 75.7754 24.3978 78.0149 24.3978C79.2048 24.3978 80.1967 25.1791 80.9437 25.1791C81.6548 25.1791 82.7637 24.351 84.1175 24.351C84.6305 24.351 86.4739 24.3978 87.6872 26.1368ZM83.4748 22.8695C84.0347 22.2052 84.4307 21.2835 84.4307 20.3618C84.4307 20.234 84.4199 20.1044 84.3965 20C83.4856 20.0342 82.4019 20.6067 81.7484 21.3645C81.2354 21.9478 80.7565 22.8695 80.7565 23.8038C80.7565 23.9442 80.7799 24.0846 80.7907 24.1296C80.8483 24.1404 80.9419 24.153 81.0356 24.153C81.8528 24.153 82.8807 23.6058 83.4748 22.8695Z" fill="#121212"/>
<path d="M106.439 35H104.189L108.286 23.3636H110.888L114.99 35H112.74L109.632 25.75H109.541L106.439 35ZM106.513 30.4375H112.649V32.1307H106.513V30.4375ZM119.973 35.1705C119.102 35.1705 118.354 34.9792 117.729 34.5966C117.107 34.214 116.628 33.6856 116.291 33.0114C115.958 32.3333 115.791 31.553 115.791 30.6705C115.791 29.7841 115.962 29.0019 116.303 28.3239C116.643 27.642 117.125 27.1117 117.746 26.733C118.371 26.3504 119.109 26.1591 119.962 26.1591C120.67 26.1591 121.297 26.2898 121.842 26.5511C122.392 26.8087 122.829 27.1742 123.155 27.6477C123.481 28.1174 123.666 28.6667 123.712 29.2955H121.746C121.666 28.875 121.477 28.5246 121.178 28.2443C120.882 27.9602 120.486 27.8182 119.99 27.8182C119.57 27.8182 119.2 27.9318 118.882 28.1591C118.564 28.3826 118.316 28.7045 118.138 29.125C117.964 29.5455 117.876 30.0492 117.876 30.6364C117.876 31.2311 117.964 31.7424 118.138 32.1705C118.312 32.5947 118.556 32.9223 118.871 33.1534C119.189 33.3807 119.562 33.4943 119.99 33.4943C120.293 33.4943 120.564 33.4375 120.803 33.3239C121.045 33.2064 121.248 33.0379 121.411 32.8182C121.573 32.5985 121.685 32.3314 121.746 32.017H123.712C123.662 32.6345 123.481 33.1818 123.166 33.6591C122.852 34.1326 122.424 34.5038 121.882 34.7727C121.34 35.0379 120.704 35.1705 119.973 35.1705ZM129.207 35.1705C128.336 35.1705 127.588 34.9792 126.963 34.5966C126.342 34.214 125.863 33.6856 125.526 33.0114C125.192 32.3333 125.026 31.553 125.026 30.6705C125.026 29.7841 125.196 29.0019 125.537 28.3239C125.878 27.642 126.359 27.1117 126.98 26.733C127.605 26.3504 128.344 26.1591 129.196 26.1591C129.904 26.1591 130.531 26.2898 131.077 26.5511C131.626 26.8087 132.063 27.1742 132.389 27.6477C132.715 28.1174 132.901 28.6667 132.946 29.2955H130.98C130.901 28.875 130.711 28.5246 130.412 28.2443C130.116 27.9602 129.721 27.8182 129.224 27.8182C128.804 27.8182 128.435 27.9318 128.116 28.1591C127.798 28.3826 127.55 28.7045 127.372 29.125C127.198 29.5455 127.111 30.0492 127.111 30.6364C127.111 31.2311 127.198 31.7424 127.372 32.1705C127.546 32.5947 127.791 32.9223 128.105 33.1534C128.423 33.3807 128.796 33.4943 129.224 33.4943C129.527 33.4943 129.798 33.4375 130.037 33.3239C130.279 33.2064 130.482 33.0379 130.645 32.8182C130.808 32.5985 130.92 32.3314 130.98 32.017H132.946C132.897 32.6345 132.715 33.1818 132.401 33.6591C132.086 34.1326 131.658 34.5038 131.116 34.7727C130.575 35.0379 129.938 35.1705 129.207 35.1705ZM138.499 35.1705C137.624 35.1705 136.868 34.9886 136.232 34.625C135.599 34.2576 135.112 33.7386 134.771 33.0682C134.43 32.3939 134.26 31.6004 134.26 30.6875C134.26 29.7898 134.43 29.0019 134.771 28.3239C135.116 27.642 135.597 27.1117 136.214 26.733C136.832 26.3504 137.557 26.1591 138.391 26.1591C138.929 26.1591 139.436 26.2462 139.913 26.4205C140.394 26.5909 140.819 26.8561 141.186 27.2159C141.557 27.5758 141.849 28.0341 142.061 28.5909C142.273 29.1439 142.379 29.803 142.379 30.5682V31.1989H135.226V29.8125H140.408C140.404 29.4186 140.319 29.0682 140.152 28.7614C139.985 28.4508 139.752 28.2064 139.453 28.0284C139.158 27.8504 138.813 27.7614 138.419 27.7614C137.999 27.7614 137.629 27.8636 137.311 28.0682C136.993 28.2689 136.745 28.5341 136.567 28.8636C136.393 29.1894 136.304 29.5473 136.3 29.9375V31.1477C136.3 31.6553 136.393 32.0909 136.578 32.4545C136.764 32.8144 137.023 33.0909 137.357 33.2841C137.69 33.4735 138.08 33.5682 138.527 33.5682C138.826 33.5682 139.097 33.5265 139.339 33.4432C139.582 33.3561 139.792 33.2292 139.97 33.0625C140.148 32.8958 140.283 32.6894 140.374 32.4432L142.294 32.6591C142.173 33.1667 141.942 33.6098 141.601 33.9886C141.264 34.3636 140.832 34.6553 140.305 34.8636C139.779 35.0682 139.177 35.1705 138.499 35.1705ZM147.358 35.1534C146.672 35.1534 146.059 34.9773 145.517 34.625C144.975 34.2727 144.547 33.7614 144.233 33.0909C143.919 32.4205 143.761 31.6061 143.761 30.6477C143.761 29.678 143.92 28.8598 144.239 28.1932C144.561 27.5227 144.994 27.017 145.54 26.6761C146.085 26.3314 146.693 26.1591 147.364 26.1591C147.875 26.1591 148.295 26.2462 148.625 26.4205C148.955 26.5909 149.216 26.7973 149.409 27.0398C149.602 27.2784 149.752 27.5038 149.858 27.7159H149.943V23.3636H152.006V35H149.983V33.625H149.858C149.752 33.8371 149.598 34.0625 149.398 34.3011C149.197 34.536 148.932 34.7367 148.602 34.9034C148.273 35.0701 147.858 35.1534 147.358 35.1534ZM147.932 33.4659C148.367 33.4659 148.739 33.3485 149.045 33.1136C149.352 32.875 149.585 32.5436 149.744 32.1193C149.903 31.6951 149.983 31.2008 149.983 30.6364C149.983 30.072 149.903 29.5814 149.744 29.1648C149.589 28.7481 149.358 28.4242 149.051 28.1932C148.748 27.9621 148.375 27.8466 147.932 27.8466C147.473 27.8466 147.091 27.9659 146.784 28.2045C146.477 28.4432 146.246 28.7727 146.091 29.1932C145.936 29.6136 145.858 30.0947 145.858 30.6364C145.858 31.1818 145.936 31.6686 146.091 32.0966C146.25 32.5208 146.483 32.8561 146.79 33.1023C147.1 33.3447 147.481 33.4659 147.932 33.4659ZM154.197 35V26.2727H156.254V35H154.197ZM155.232 25.0341C154.906 25.0341 154.625 24.9261 154.391 24.7102C154.156 24.4905 154.038 24.2273 154.038 23.9205C154.038 23.6098 154.156 23.3466 154.391 23.1307C154.625 22.911 154.906 22.8011 155.232 22.8011C155.561 22.8011 155.841 22.911 156.072 23.1307C156.307 23.3466 156.425 23.6098 156.425 23.9205C156.425 24.2273 156.307 24.4905 156.072 24.7102C155.841 24.9261 155.561 25.0341 155.232 25.0341ZM166.145 35.1705C165.274 35.1705 164.526 34.9792 163.901 34.5966C163.279 34.214 162.8 33.6856 162.463 33.0114C162.13 32.3333 161.963 31.553 161.963 30.6705C161.963 29.7841 162.134 29.0019 162.474 28.3239C162.815 27.642 163.296 27.1117 163.918 26.733C164.543 26.3504 165.281 26.1591 166.134 26.1591C166.842 26.1591 167.469 26.2898 168.014 26.5511C168.563 26.8087 169.001 27.1742 169.327 27.6477C169.652 28.1174 169.838 28.6667 169.884 29.2955H167.918C167.838 28.875 167.649 28.5246 167.349 28.2443C167.054 27.9602 166.658 27.8182 166.162 27.8182C165.741 27.8182 165.372 27.9318 165.054 28.1591C164.736 28.3826 164.488 28.7045 164.31 29.125C164.135 29.5455 164.048 30.0492 164.048 30.6364C164.048 31.2311 164.135 31.7424 164.31 32.1705C164.484 32.5947 164.728 32.9223 165.043 33.1534C165.361 33.3807 165.734 33.4943 166.162 33.4943C166.465 33.4943 166.736 33.4375 166.974 33.3239C167.217 33.2064 167.42 33.0379 167.582 32.8182C167.745 32.5985 167.857 32.3314 167.918 32.017H169.884C169.834 32.6345 169.652 33.1818 169.338 33.6591C169.024 34.1326 168.596 34.5038 168.054 34.7727C167.512 35.0379 166.876 35.1705 166.145 35.1705ZM175.379 35.1705C174.527 35.1705 173.788 34.983 173.163 34.608C172.538 34.233 172.054 33.7083 171.709 33.0341C171.368 32.3598 171.197 31.572 171.197 30.6705C171.197 29.7689 171.368 28.9792 171.709 28.3011C172.054 27.6231 172.538 27.0966 173.163 26.7216C173.788 26.3466 174.527 26.1591 175.379 26.1591C176.232 26.1591 176.97 26.3466 177.595 26.7216C178.22 27.0966 178.703 27.6231 179.044 28.3011C179.389 28.9792 179.561 29.7689 179.561 30.6705C179.561 31.572 179.389 32.3598 179.044 33.0341C178.703 33.7083 178.22 34.233 177.595 34.608C176.97 34.983 176.232 35.1705 175.379 35.1705ZM175.391 33.5227C175.853 33.5227 176.239 33.3958 176.55 33.142C176.86 32.8845 177.091 32.5398 177.243 32.108C177.398 31.6761 177.476 31.1951 177.476 30.6648C177.476 30.1307 177.398 29.6477 177.243 29.2159C177.091 28.7803 176.86 28.4337 176.55 28.1761C176.239 27.9186 175.853 27.7898 175.391 27.7898C174.917 27.7898 174.523 27.9186 174.209 28.1761C173.898 28.4337 173.665 28.7803 173.51 29.2159C173.358 29.6477 173.283 30.1307 173.283 30.6648C173.283 31.1951 173.358 31.6761 173.51 32.108C173.665 32.5398 173.898 32.8845 174.209 33.142C174.523 33.3958 174.917 33.5227 175.391 33.5227ZM183.364 29.8864V35H181.307V26.2727H183.273V27.7557H183.375C183.576 27.267 183.896 26.8788 184.335 26.5909C184.778 26.303 185.326 26.1591 185.977 26.1591C186.58 26.1591 187.104 26.2879 187.551 26.5455C188.002 26.803 188.35 27.1761 188.597 27.6648C188.847 28.1534 188.97 28.7462 188.966 29.4432V35H186.909V29.7614C186.909 29.178 186.758 28.7216 186.455 28.392C186.155 28.0625 185.741 27.8977 185.21 27.8977C184.85 27.8977 184.53 27.9773 184.25 28.1364C183.973 28.2917 183.756 28.517 183.597 28.8125C183.441 29.108 183.364 29.4659 183.364 29.8864ZM196.611 35H194.361L198.457 23.3636H201.06L205.162 35H202.912L199.804 25.75H199.713L196.611 35ZM196.685 30.4375H202.821V32.1307H196.685V30.4375ZM206.604 38.2727V26.2727H208.626V27.7159H208.746C208.852 27.5038 209.001 27.2784 209.195 27.0398C209.388 26.7973 209.649 26.5909 209.979 26.4205C210.308 26.2462 210.729 26.1591 211.24 26.1591C211.914 26.1591 212.522 26.3314 213.064 26.6761C213.609 27.017 214.041 27.5227 214.359 28.1932C214.681 28.8598 214.842 29.678 214.842 30.6477C214.842 31.6061 214.685 32.4205 214.371 33.0909C214.056 33.7614 213.628 34.2727 213.087 34.625C212.545 34.9773 211.931 35.1534 211.246 35.1534C210.746 35.1534 210.331 35.0701 210.001 34.9034C209.672 34.7367 209.407 34.536 209.206 34.3011C209.009 34.0625 208.856 33.8371 208.746 33.625H208.661V38.2727H206.604ZM208.621 30.6364C208.621 31.2008 208.7 31.6951 208.859 32.1193C209.022 32.5436 209.255 32.875 209.558 33.1136C209.865 33.3485 210.236 33.4659 210.672 33.4659C211.126 33.4659 211.507 33.3447 211.814 33.1023C212.121 32.8561 212.352 32.5208 212.507 32.0966C212.666 31.6686 212.746 31.1818 212.746 30.6364C212.746 30.0947 212.668 29.6136 212.513 29.1932C212.357 28.7727 212.126 28.4432 211.82 28.2045C211.513 27.9659 211.13 27.8466 210.672 27.8466C210.232 27.8466 209.859 27.9621 209.553 28.1932C209.246 28.4242 209.013 28.7481 208.854 29.1648C208.698 29.5814 208.621 30.072 208.621 30.6364ZM216.604 38.2727V26.2727H218.626V27.7159H218.746C218.852 27.5038 219.001 27.2784 219.195 27.0398C219.388 26.7973 219.649 26.5909 219.979 26.4205C220.308 26.2462 220.729 26.1591 221.24 26.1591C221.914 26.1591 222.522 26.3314 223.064 26.6761C223.609 27.017 224.041 27.5227 224.359 28.1932C224.681 28.8598 224.842 29.678 224.842 30.6477C224.842 31.6061 224.685 32.4205 224.371 33.0909C224.056 33.7614 223.628 34.2727 223.087 34.625C222.545 34.9773 221.931 35.1534 221.246 35.1534C220.746 35.1534 220.331 35.0701 220.001 34.9034C219.672 34.7367 219.407 34.536 219.206 34.3011C219.009 34.0625 218.856 33.8371 218.746 33.625H218.661V38.2727H216.604ZM218.621 30.6364C218.621 31.2008 218.7 31.6951 218.859 32.1193C219.022 32.5436 219.255 32.875 219.558 33.1136C219.865 33.3485 220.236 33.4659 220.672 33.4659C221.126 33.4659 221.507 33.3447 221.814 33.1023C222.121 32.8561 222.352 32.5208 222.507 32.0966C222.666 31.6686 222.746 31.1818 222.746 30.6364C222.746 30.0947 222.668 29.6136 222.513 29.1932C222.357 28.7727 222.126 28.4432 221.82 28.2045C221.513 27.9659 221.13 27.8466 220.672 27.8466C220.232 27.8466 219.859 27.9621 219.553 28.1932C219.246 28.4242 219.013 28.7481 218.854 29.1648C218.698 29.5814 218.621 30.072 218.621 30.6364ZM228.661 23.3636V35H226.604V23.3636H228.661ZM234.639 35.1705C233.764 35.1705 233.009 34.9886 232.372 34.625C231.74 34.2576 231.253 33.7386 230.912 33.0682C230.571 32.3939 230.401 31.6004 230.401 30.6875C230.401 29.7898 230.571 29.0019 230.912 28.3239C231.257 27.642 231.738 27.1117 232.355 26.733C232.973 26.3504 233.698 26.1591 234.531 26.1591C235.069 26.1591 235.577 26.2462 236.054 26.4205C236.535 26.5909 236.959 26.8561 237.327 27.2159C237.698 27.5758 237.99 28.0341 238.202 28.5909C238.414 29.1439 238.52 29.803 238.52 30.5682V31.1989H231.366V29.8125H236.548C236.545 29.4186 236.459 29.0682 236.293 28.7614C236.126 28.4508 235.893 28.2064 235.594 28.0284C235.298 27.8504 234.954 27.7614 234.56 27.7614C234.139 27.7614 233.77 27.8636 233.452 28.0682C233.134 28.2689 232.885 28.5341 232.707 28.8636C232.533 29.1894 232.444 29.5473 232.44 29.9375V31.1477C232.44 31.6553 232.533 32.0909 232.719 32.4545C232.904 32.8144 233.164 33.0909 233.497 33.2841C233.83 33.4735 234.221 33.5682 234.668 33.5682C234.967 33.5682 235.238 33.5265 235.48 33.4432C235.723 33.3561 235.933 33.2292 236.111 33.0625C236.289 32.8958 236.423 32.6894 236.514 32.4432L238.435 32.6591C238.313 33.1667 238.082 33.6098 237.741 33.9886C237.404 34.3636 236.973 34.6553 236.446 34.8636C235.92 35.0682 235.317 35.1705 234.639 35.1705Z" fill="#121212"/>
</svg>
